# xmcd
#
# Track frame offsets:
# 150
# 12205
# 24592
# 38772
# 50872
# 60937
# 73260
# 85087
# 95715
# 106092
# 118582
# 131532
# 143117
# 155620
# 166347
# 177730
# 191440
# 203782
# 217107
# 229835
# 240742
#
# Disc length: 3337 seconds
#
#
# Revision: 0
# Processed by: cddbd v1.5.1PL2 Copyright (c) Steve Scherf et al.
# Submitted via: FreeRIP 2.944 
#
DISCID=2c0d0715
DTITLE=Compilations - Blues from the 50s
DYEAR=1900
DGENRE=Blues
TTITLE0=St. Pete Florida Blues - Ray Charles
TTITLE1=Alley Corn - Earl Hooker
TTITLE2=Sweet Angel - Earl Hooker
TTITLE3=Goin' to New Orleans - Little Sam Davis
TTITLE4=She's So Good to Me - Little Sam Davis
TTITLE5=On the Hook - Earl Hooker
TTITLE6=Goin' Home to Mother - Little Sam Davis
TTITLE7=1958 Blues - Little Sam Davis
TTITLE8=Jammin' - Earl Hooker
TTITLE9=Ride Hooker Ride - Earl Hooker
TTITLE10=After Hours - Earl Hooker
TTITLE11=Jealous Man - Johnny Lewis
TTITLE12=She's Taking All My Money - Johnny Lewis
TTITLE13=Ridin' Home - Leslie Louis
TTITLE14=Don't Do It Again - Leslie Louis
TTITLE15=Alley Blues - Jimmy Wilson
TTITLE16=Walkin' the Streets - Lightnin' Hopkins
TTITLE17=Mussy Haired Woman - Lightnin' Hopkins
TTITLE18=Goin' Back Home Today - Willie Baker
TTITLE19=A Fool No More - Eddie Hope and The Mannish Boys
TTITLE20=Last Child - Eddie Hope and The Mannish Boys
EXTD=
EXTT0=
EXTT1=
EXTT2=
EXTT3=
EXTT4=
EXTT5=
EXTT6=
EXTT7=
EXTT8=
EXTT9=
EXTT10=
EXTT11=
EXTT12=
EXTT13=
EXTT14=
EXTT15=
EXTT16=
EXTT17=
EXTT18=
EXTT19=
EXTT20=
PLAYORDER=
